# xmcd
#
# Track frame offsets:
# 150
# 2935
# 8144
# 15795
# 45816
# 74673
# 120876
# 154441
# 198610
# 238847
# 283416
# 299029
#
# Disc length: 4201 seconds
#
# Revision: 1
# Processed by: cddbd v1.4PL0 Copyright (c) Steve Scherf et al.
# Submitted via: Easy CD Ripper 1.45
#
DISCID=a910670c
DTITLE=城ひ - 城ひ^y2-Englisho妓弧程慌
DYEAR=2002
DGENRE=Country
TTITLE0=城ひ焊
TTITLE1=城ひ - GQせ应rダ喊岐k
TTITLE2=城ひ - 长蟓导啸拷To
TTITLE3=城ひ - ず娓1-10
TTITLE4=城ひ - ず娓11-20
TTITLE5=城ひ - ず娓21-30
TTITLE6=城ひ - ず娓31-40
TTITLE7=城ひ - ず娓41-50
TTITLE8=城ひ - ず娓51-60
TTITLE9=城ひ - ず娓61-70
TTITLE10=城ひ - |H焊1-8
TTITLE11=城ひ - |H焊9-16
EXTD=
EXTT0=
EXTT1=
EXTT2=
EXTT3=
EXTT4=
EXTT5=
EXTT6=
EXTT7=
EXTT8=
EXTT9=
EXTT10=
EXTT11=
PLAYORDER=
